# Blender3D v249 OBJ File: LightTank.blend
# www.blender3d.org
v 0.349861 1.648839 1.107162
v -0.353051 1.648839 1.107162
v -0.345403 2.150644 1.056935
v 0.342213 2.150644 1.056935
v 0.531106 2.213488 0.316234
v 0.531106 2.198441 0.030760
v 0.455845 2.196069 -0.437791
v 0.272887 2.196069 -0.484776
v -0.276078 2.196069 -0.484776
v -0.459035 2.196069 -0.437790
v -0.534296 2.198441 0.030761
v -0.534296 2.213488 0.316234
v -0.391559 2.252795 0.563461
v -0.144332 2.252795 0.706199
v 0.141142 2.252795 0.706199
v 0.388369 2.252795 0.563461
v 0.819549 2.097085 0.393521
v 0.787254 2.078053 -0.046280
v 0.513555 2.076528 -0.563844
v 0.334738 2.076528 -0.623095
v -0.337929 2.076528 -0.623095
v -0.516745 2.076528 -0.563843
v -0.790444 2.078053 -0.046279
v -0.822739 2.097085 0.393522
v -0.602714 2.144574 0.774617
v -0.409304 2.163644 0.934424
v 0.406114 2.163644 0.934424
v 0.599524 2.144574 0.774616
v 0.837815 1.636185 0.398415
v 0.837815 1.636185 -0.051422
v 0.396082 1.636185 -0.749989
v 0.358113 1.636185 -0.776816
v -0.361304 1.636185 -0.776816
v -0.399273 1.636185 -0.749988
v -0.841005 1.636185 -0.051421
v -0.841005 1.636185 0.398416
v -0.616085 1.636185 0.787988
v -0.418373 1.636185 0.977628
v 0.415183 1.636185 0.977628
v 0.612896 1.636185 0.787988
vt 0.347656 0.394531
vt 0.347656 0.435547
vt 0.265625 0.435547
vt 0.265625 0.394531
vt 0.242188 0.394531
vt 0.242188 0.435547
vt 0.166016 0.435547
vt 0.166016 0.394531
vt 0.429688 0.400391
vt 0.498047 0.435547
vt 0.414062 0.539062
vt 0.492188 0.537109
vt 0.414062 0.615234
vt 0.488281 0.714844
vt 0.414062 0.751953
vt 0.492188 0.615234
vt 0.337891 0.769531
vt 0.341797 0.611328
vt 0.371094 0.664062
vt 0.367188 0.720703
vt 0.287109 0.798828
vt 0.287109 0.582031
vt 0.230469 0.798828
vt 0.230469 0.582031
vt 0.179688 0.769531
vt 0.179688 0.613281
vt 0.150391 0.720703
vt 0.150391 0.662109
vt 0.148438 0.798828
vt 0.109375 0.728516
vt 0.113281 0.650391
vt 0.164062 0.554688
vt 0.199219 0.539062
vt 0.322266 0.539062
vt 0.357422 0.556641
vt 0.408203 0.650391
vt 0.412109 0.734375
vt 0.373047 0.804688
vt 0.332031 0.832031
vt 0.181641 0.832031
vt 0.416016 0.697266
vt 0.414062 0.617188
vt 0.496094 0.615234
vt 0.496094 0.693359
vt 0.425781 0.390625
vt 0.505859 0.406250
vt 0.582031 0.654297
vt 0.576172 0.535156
vt 0.652344 0.539062
vt 0.656250 0.648438
vt 0.492188 0.751953
vt 0.414062 0.761719
vt 0.414062 0.537109
vt 0.488281 0.537109
vt 0.419922 0.457031
vt 0.496094 0.458984
vt 0.425781 0.410156
vt 0.501953 0.410156
vt 0.414062 0.742188
vt 0.492188 0.740234
vn 0.000000 0.099596 0.995028
vn 0.888445 0.055785 0.455580
vn 0.000000 -0.995263 0.097221
vn -0.888446 0.055785 0.455578
vn 0.000000 0.994418 0.105515
vn 0.635975 0.161840 -0.754509
vn 0.636952 0.462600 -0.616657
vn 0.932524 0.062502 -0.355571
vn 0.802789 0.555803 -0.215735
vn -0.932524 0.062502 -0.355571
vn -0.636952 0.462600 -0.616657
vn -0.635975 0.161840 -0.754509
vn -0.802789 0.555803 -0.215735
vn -0.209658 0.976807 -0.043491
vn 0.011740 0.998539 -0.052743
vn 0.000000 0.998868 -0.047576
vn -0.011740 0.998539 -0.052743
vn 0.209657 0.976807 -0.043491
vn 0.640797 0.604480 0.473190
vn 0.793756 0.590411 0.146062
vn 0.327036 0.944975 -0.006653
vn 0.192633 0.979827 0.052980
vn 0.379589 0.919919 -0.098056
vn 0.235908 0.942625 -0.236091
vn 0.139470 0.566271 -0.812311
vn 0.044527 0.931242 -0.361583
vn -0.139470 0.566271 -0.812311
vn -0.044527 0.931242 -0.361583
vn -0.235908 0.942625 -0.236091
vn -0.379589 0.919919 -0.098056
vn -0.793756 0.590411 0.146062
vn -0.327036 0.944975 -0.006653
vn -0.640797 0.604480 0.473190
vn -0.192633 0.979827 0.052980
vn -0.442824 0.758202 0.478500
vn -0.046175 0.991241 0.123508
vn 0.442824 0.758202 0.478500
vn 0.046175 0.991241 0.123508
vn 0.776360 0.046937 0.628498
vn 0.969115 0.059114 0.239357
vn 0.178625 0.322031 -0.929716
vn -0.178655 0.322031 -0.929716
vn -0.969115 0.059114 0.239357
vn -0.776360 0.046937 0.628498
vn -0.703940 -0.400342 0.586657
vn 0.703940 -0.400342 0.586657
usemtl [body]
s off
f 1/1/1 4/2/1 3/3/1 2/4/1
f 1/5/2 39/6/2 27/7/2 4/8/2
f 39/8/3 1/7/3 2/6/3 38/5/3
f 38/5/4 2/6/4 3/7/4 26/8/4
f 26/8/5 3/7/5 4/6/5 27/5/5
s 1
f 31/9/6 19/10/7 30/11/8
f 30/11/8 19/10/7 18/12/9
f 35/13/10 22/14/11 34/15/12
f 35/13/10 23/16/13 22/14/11
s off
f 13/17/14 10/18/14 11/19/14 12/20/14
f 14/21/15 9/22/15 10/18/15 13/17/15
f 15/23/16 8/24/16 9/22/16 14/21/16
f 16/25/17 7/26/17 8/24/17 15/23/17
f 16/25/18 5/27/18 6/28/18 7/26/18
s 1
f 28/29/19 17/30/20 5/27/21 16/25/22
f 18/31/9 6/28/23 5/27/21 17/30/20
f 18/31/9 19/32/7 7/26/24 6/28/23
f 20/33/25 8/24/26 7/26/24 19/32/7
f 20/33/25 21/34/27 9/22/28 8/24/26
f 22/35/11 10/18/29 9/22/28 21/34/27
f 22/35/11 23/36/13 11/19/30 10/18/29
f 24/37/31 12/20/32 11/19/30 23/36/13
f 25/38/33 13/17/34 12/20/32 24/37/31
f 25/38/33 26/39/35 14/21/36 13/17/34
f 27/40/37 15/23/38 14/21/36 26/39/35
f 27/40/37 28/29/19 16/25/22 15/23/38
f 40/41/39 29/42/40 17/43/20 28/44/19
f 30/11/8 18/12/9 17/43/20 29/42/40
f 32/45/41 20/46/25 19/10/7 31/9/6
f 32/47/41 33/48/42 21/49/27 20/50/25
f 34/15/12 22/14/11 21/51/27 33/52/42
f 36/53/43 24/54/31 23/16/13 35/13/10
f 37/55/44 25/56/33 24/54/31 36/53/43
f 37/55/44 38/57/45 26/58/35 25/56/33
f 39/59/46 40/41/39 28/44/19 27/60/37
