# Blender3D v249 OBJ File: van.blend
# www.blender3d.org
v 0.002170 3.014818 0.377748
v 0.035181 3.005973 0.377748
v 0.059346 3.030138 0.377748
v 0.050501 3.063149 0.377748
v 0.017490 3.071995 0.377748
v -0.006675 3.047829 0.377748
v 0.002170 3.014818 -0.943728
v 0.035181 3.005973 -0.943728
v 0.059346 3.030138 -0.943728
v 0.050501 3.063149 -0.943728
v 0.017490 3.071995 -0.943728
v -0.006675 3.047829 -0.943728
v 0.026335 3.038984 0.377748
v -0.010753 3.001895 -0.965474
v -0.024329 3.052559 -0.965474
v 0.012760 3.089648 -0.965474
v 0.063424 3.076072 -0.965474
v 0.077000 3.025408 -0.965474
v 0.039911 2.988319 -0.965474
v -0.010753 3.001895 -1.098283
v 0.039911 2.988319 -1.098283
v 0.077000 3.025408 -1.098283
v 0.063424 3.076072 -1.098283
v 0.012760 3.089648 -1.098283
v -0.024329 3.052559 -1.098283
v 0.026336 3.038984 -1.098283
v -0.034722 2.963110 0.359066
v 0.087393 2.963110 0.359066
v 0.087393 2.963111 0.869226
v -0.034722 2.963111 0.869226
v -0.034722 3.114856 0.359066
v 0.087393 3.114856 0.359067
v 0.087393 3.114857 0.869226
v -0.034722 3.114857 0.869226
v -0.142129 3.126977 0.820692
v 0.194800 3.126977 0.820692
v 0.194800 3.126977 0.646189
v -0.142129 3.126977 0.646189
v -0.142129 2.950990 0.820692
v 0.194800 2.950990 0.820692
v 0.194800 2.950990 0.646189
v -0.142129 2.950990 0.646189
v 0.005009 3.143347 0.672305
v 0.047662 3.143347 0.672305
v 0.047662 3.143347 0.487300
v 0.005009 3.143347 0.487299
v 0.005009 3.099400 0.729516
v 0.047662 3.099400 0.729516
v 0.047662 3.099400 0.430089
v 0.005009 3.099400 0.430089
vt 0.221183 0.096499
vt 0.279617 0.096499
vt 0.279617 0.154933
vt 0.221183 0.154933
vn 0.000000 0.000000 1.000000
vn -0.258822 -0.965925 0.000000
vn 0.169408 -0.632344 0.755913
vn 0.242256 -0.904202 0.351695
vn 0.904202 -0.242256 0.351695
vn 0.632344 -0.169408 0.755913
vn 0.661916 0.661916 0.351695
vn 0.462905 0.462905 0.755913
vn -0.242256 0.904202 0.351695
vn -0.169408 0.632344 0.755913
vn -0.707108 0.707106 0.000000
vn -0.965926 -0.258819 0.000000
vn -0.780964 -0.209259 0.588478
vn -0.571706 0.571707 0.588476
vn 0.209259 0.780965 0.588476
vn 0.780964 0.209258 0.588478
vn 0.571706 -0.571705 0.588478
vn -0.209261 -0.780963 0.588479
vn -0.661916 -0.661916 0.351695
vn -0.462905 -0.462905 -0.755913
vn 0.169408 -0.632344 -0.755913
vn 0.632344 -0.169408 -0.755913
vn 0.462905 0.462905 -0.755913
vn -0.169408 0.632344 -0.755913
vn -0.904202 0.242256 0.351695
vn -0.632344 0.169408 -0.755913
vn 0.000000 0.000000 -1.000000
vn 0.000000 -1.000000 0.000000
vn 0.000000 1.000000 0.000000
vn 0.000001 0.000000 -1.000000
vn 1.000000 0.000000 0.000000
vn -1.000000 0.000000 0.000000
vn 1.000000 0.000000 0.000001
vn -0.000001 0.793036 0.609174
vn 0.000001 0.793037 -0.609174
usemtl van_texture.png
s off
f 13/1/1 1/2/1 2/3/1
f 13/1/1 2/2/1 3/3/1
f 13/1/1 3/2/1 4/3/1
f 13/1/1 4/2/1 5/3/1
f 13/1/1 5/2/1 6/3/1
f 6/1/1 1/2/1 13/3/1
f 1/1/2 7/2/2 8/3/2 2/4/2
s 1
f 2/1/3 8/2/4 9/3/5 3/4/6
f 3/1/6 9/2/5 10/3/7 4/4/8
f 4/1/8 10/2/7 11/3/9 5/4/10
s off
f 5/1/11 11/2/11 12/3/11 6/4/11
f 7/1/12 1/2/12 6/3/12 12/4/12
f 7/1/13 12/2/13 15/3/13 14/4/13
f 12/1/14 11/2/14 16/3/14 15/4/14
f 11/1/15 10/2/15 17/3/15 16/4/15
f 10/1/16 9/2/16 18/3/16 17/4/16
f 9/1/17 8/2/17 19/3/17 18/4/17
f 8/1/18 7/2/18 14/3/18 19/4/18
s 1
f 19/1/4 14/2/19 20/3/20 21/4/21
f 18/1/5 19/2/4 21/3/21 22/4/22
f 17/1/7 18/2/5 22/3/22 23/4/23
f 16/1/9 17/2/7 23/3/23 24/4/24
f 15/1/25 16/2/9 24/3/24 25/4/26
f 14/1/19 15/2/25 25/3/26 20/4/20
s off
f 26/1/27 21/2/27 20/3/27
f 26/1/27 22/2/27 21/3/27
f 26/1/27 23/2/27 22/3/27
f 26/1/27 24/2/27 23/3/27
f 26/1/27 25/2/27 24/3/27
f 26/1/27 20/2/27 25/3/27
f 27/1/28 28/2/28 29/3/28 30/4/28
f 31/1/29 34/2/29 33/3/29 32/4/29
f 27/1/30 31/2/30 32/3/30 28/4/30
f 28/1/31 32/2/31 33/3/31 29/4/31
f 29/1/1 33/2/1 34/3/1 30/4/1
f 31/1/32 27/2/32 30/3/32 34/4/32
f 38/1/32 42/2/32 39/3/32 35/4/32
f 40/1/1 36/2/1 35/3/1 39/4/1
f 41/1/33 37/2/33 36/3/33 40/4/33
f 42/1/27 38/2/27 37/3/27 41/4/27
f 38/1/29 35/2/29 36/3/29 37/4/29
f 42/1/28 41/2/28 40/3/28 39/4/28
f 46/1/32 50/2/32 47/3/32 43/4/32
f 48/1/34 44/2/34 43/3/34 47/4/34
f 49/1/31 45/2/31 44/3/31 48/4/31
f 50/1/35 46/2/35 45/3/35 49/4/35
f 46/1/29 43/2/29 44/3/29 45/4/29
f 50/1/28 49/2/28 48/3/28 47/4/28
