# Blender3D v249 OBJ File: van.blend
# www.blender3d.org
v 1.305817 -0.279365 -2.513126
v 1.305817 -0.279365 2.799388
v -1.305817 -0.279365 2.799387
v -1.305816 -0.279365 -2.513127
v 1.336329 -0.082750 -2.365607
v 1.336327 -0.082750 2.651872
v -1.336329 -0.082750 2.651870
v -1.336328 -0.082750 -2.365608
v 0.584941 0.319827 -1.868329
v -0.584940 0.319827 -1.868330
v -0.584940 0.319827 2.154592
v 0.584940 0.319827 2.154594
v -0.966667 -1.063467 2.109498
v -0.966666 -1.063467 -1.823237
v 0.966667 -1.063467 -1.823236
v 0.966667 -1.063467 2.109499
vt 0.816406 0.269531
vt 0.828125 0.269531
vt 0.828125 0.281250
vt 0.816406 0.281250
vn 0.752800 -0.241218 -0.612445
vn 0.497757 0.717612 -0.487075
vn 0.497757 0.717612 0.487075
vn 0.752770 -0.241218 0.612445
vn -0.497757 0.717612 0.487075
vn -0.752770 -0.241218 0.612445
vn -0.497757 0.717612 -0.487075
vn -0.752800 -0.241218 -0.612445
vn -0.170324 0.958892 -0.226936
vn 0.170324 0.958892 -0.226936
vn -0.170324 0.958892 0.226936
vn 0.170324 0.958892 0.226936
vn -0.386486 -0.866390 -0.316141
vn -0.386486 -0.866390 0.316141
vn 0.386486 -0.866390 -0.316141
vn 0.386486 -0.866390 0.316141
s 1
f 1/1/1 5/2/2 6/3/3 2/4/4
f 2/1/4 6/2/3 7/3/5 3/4/6
f 3/1/6 7/2/5 8/3/7 4/4/8
f 5/1/2 1/2/1 4/3/8 8/4/7
f 5/1/2 8/2/7 10/3/9 9/4/10
f 8/1/7 7/2/5 11/3/11 10/4/9
f 7/1/5 6/2/3 12/3/12 11/4/11
f 6/1/3 5/2/2 9/3/10 12/4/12
f 9/1/10 10/2/9 11/3/11 12/4/12
f 3/1/6 4/2/8 14/3/13 13/4/14
f 4/1/8 1/2/1 15/3/15 14/4/13
f 1/1/1 2/2/4 16/3/16 15/4/15
f 2/1/4 3/2/6 13/3/14 16/4/16
f 15/1/15 16/2/16 13/3/14 14/4/13
