# Blender3D v249 OBJ File: FlagMesh.blend
# www.blender3d.org
v 0.340310 -0.148073 -0.340310
v 0.340310 -0.148073 0.340310
v -0.340310 -0.148073 0.340310
v -0.340310 -0.148073 -0.340310
v 0.160691 0.402346 -0.160691
v 0.160691 0.402346 0.160691
v -0.160691 0.402346 0.160691
v -0.160691 0.402346 -0.160691
v 0.044538 0.402346 -0.044538
v 0.060840 0.402346 0.016302
v 0.016302 0.402346 0.060840
v -0.044538 0.402346 0.044538
v -0.060840 0.402346 -0.016302
v -0.016302 0.402346 -0.060840
v 0.044538 5.397440 -0.044538
v 0.060840 5.397440 0.016302
v 0.016302 5.397440 0.060840
v -0.044538 5.397440 0.044538
v -0.060840 5.397440 -0.016302
v -0.016302 5.397440 -0.060840
v 0.000000 5.464090 -0.000000
vt 0.767578 0.593750
vt 0.208984 0.593750
vt 0.208984 0.039062
vt 0.767578 0.039062
vt 1.253906 -0.191406
vt 0.855469 1.085938
vt 0.142578 1.085938
vt -0.253906 -0.191406
vt 1.246094 -0.210938
vt 0.851562 1.085938
vt -0.259766 -0.210938
vt 1.253906 -0.179688
vt 0.855469 1.101562
vt 0.142578 1.082031
vt -0.251953 -0.191406
vt -0.251953 -0.210938
vt 0.851562 1.101562
vt 0.628906 0.289062
vt 0.818359 0.011719
vt 0.818359 0.628906
vt 0.542969 0.203125
vt 0.205078 0.011719
vt 0.425781 0.234375
vt 0.597656 0.406250
vt 0.205078 0.628906
vt 0.394531 0.351562
vt 0.480469 0.437500
vt -2.566406 0.552734
vt -2.566406 0.458984
vt 3.480469 0.458984
vt 3.480469 0.552734
vt -2.566406 0.767578
vt -2.566406 0.673828
vt 3.480469 0.673828
vt 3.480469 0.767578
vt -2.566406 0.861328
vt 3.480469 0.861328
vt -2.566406 0.953125
vt 3.480469 0.953125
vt -2.566406 0.378906
vt -2.566406 0.287109
vt 3.480469 0.287109
vt 3.480469 0.378906
vt 0.384766 0.136719
vt 0.294922 0.167969
vt 0.308594 0.031250
vt 0.203125 0.107422
vt 0.628906 0.062500
vt 0.705078 0.167969
vt 0.582031 0.152344
vt 0.734375 0.031250
vt 0.810547 0.091797
vt 0.445312 0.046875
vn 0.000000 -1.000000 0.000000
vn 0.950661 0.310231 0.000000
vn 0.000000 0.310231 0.950661
vn -0.950661 0.310231 0.000000
vn 0.000000 0.310231 -0.950661
vn -0.000001 1.000000 0.000000
vn 0.000000 1.000000 0.000000
vn 0.000000 1.000000 -0.000001
vn 0.000000 1.000000 0.000001
vn 0.482955 0.866024 0.129398
vn 0.462905 0.755913 -0.462905
vn 0.653706 0.381146 -0.653706
vn 0.893002 0.381146 0.239265
vn 0.129398 0.866024 0.482955
vn 0.239265 0.381146 0.893002
vn -0.462905 0.755913 0.462905
vn -0.653706 0.381146 0.653706
vn -0.482955 0.866024 -0.129398
vn -0.893002 0.381146 -0.239265
vn -0.129398 0.866024 -0.482955
vn -0.239265 0.381146 -0.893002
vn 0.000001 1.000000 0.000000
usemtl metal.png
s off
f 1/1/1 2/2/1 3/3/1 4/4/1
f 1/5/2 5/6/2 6/7/2 2/8/2
f 2/9/3 6/10/3 7/7/3 3/11/3
f 3/12/4 7/13/4 8/14/4 4/15/4
f 5/14/5 1/16/5 4/5/5 8/17/5
f 13/18/6 8/19/6 7/20/6
f 14/21/7 8/19/7 13/18/7
f 5/22/8 8/19/8 14/21/8
f 9/23/7 5/22/7 14/21/7
f 12/24/7 13/18/7 7/20/7
f 6/25/7 10/26/7 11/27/7
f 11/27/7 12/24/7 7/20/7
f 6/25/9 11/27/9 7/20/9
usemtl wood.png
s 1
f 10/28/10 9/29/11 15/30/12 16/31/13
f 11/32/14 10/33/10 16/34/13 17/35/15
f 12/36/16 11/32/14 17/35/15 18/37/17
f 13/38/18 12/36/16 18/37/17 19/39/19
f 14/40/20 13/41/18 19/42/19 20/43/21
f 9/29/11 14/40/20 20/43/21 15/30/12
usemtl metal.png
s off
f 5/22/7 9/23/7 10/26/7
f 5/22/22 10/26/22 6/25/22
usemtl wood.png
s 1
f 15/44/12 20/45/21 21/46/7
f 19/47/19 21/46/7 20/45/21
f 18/48/17 21/49/7 19/50/19
f 17/51/15 21/49/7 18/48/17
f 16/52/13 21/49/7 17/51/15
f 15/44/12 21/46/7 16/53/13
