# Blender3D v249 OBJ File: MediumTank.blend
# www.blender3d.org
v 1.233633 -0.191588 -2.639115
v 1.233633 -0.191587 2.422744
v -1.233633 -0.191587 2.422744
v -1.233633 -0.191588 -2.639116
v 1.262459 -0.027741 -2.498557
v 1.262457 -0.027741 2.282189
v -1.262458 -0.027741 2.282186
v -1.262458 -0.027741 -2.498558
v 0.552606 0.307740 -2.024741
v -0.552606 0.307740 -2.024742
v -0.552606 0.307740 1.808371
v 0.552606 0.307740 1.808373
v -0.913231 -0.845005 1.765405
v -0.913231 -0.845006 -1.981776
v 0.913231 -0.845006 -1.981776
v 0.913231 -0.845005 1.765405
vt 0.816406 0.269531
vt 0.828125 0.269531
vt 0.828125 0.281250
vt 0.816406 0.281250
vn 0.759850 -0.271065 -0.590838
vn 0.481155 0.748955 -0.455489
vn 0.481155 0.748955 0.455489
vn 0.759850 -0.271065 0.590838
vn -0.481155 0.748955 0.455489
vn -0.759850 -0.271065 0.590838
vn -0.481155 0.748955 -0.455489
vn -0.759850 -0.271065 -0.590838
vn -0.151860 0.966826 -0.205359
vn 0.151860 0.966826 -0.205359
vn -0.151860 0.966826 0.205359
vn 0.151860 0.966826 0.205359
vn -0.368908 -0.883145 -0.289651
vn -0.368908 -0.883145 0.289651
vn 0.368908 -0.883145 -0.289651
vn 0.368908 -0.883145 0.289651
s 1
f 1/1/1 5/2/2 6/3/3 2/4/4
f 2/1/4 6/2/3 7/3/5 3/4/6
f 3/1/6 7/2/5 8/3/7 4/4/8
f 5/1/2 1/2/1 4/3/8 8/4/7
f 5/1/2 8/2/7 10/3/9 9/4/10
f 8/1/7 7/2/5 11/3/11 10/4/9
f 7/1/5 6/2/3 12/3/12 11/4/11
f 6/1/3 5/2/2 9/3/10 12/4/12
f 9/1/10 10/2/9 11/3/11 12/4/12
f 3/1/6 4/2/8 14/3/13 13/4/14
f 4/1/8 1/2/1 15/3/15 14/4/13
f 1/1/1 2/2/4 16/3/16 15/4/15
f 2/1/4 3/2/6 13/3/14 16/4/16
f 15/1/15 16/2/16 13/3/14 14/4/13
